<svg width="50" height="41" viewBox="0 0 50 41" fill="none" xmlns="http://www.w3.org/2000/svg">
<mask id="path-1-outside-1_5690_3617" maskUnits="userSpaceOnUse" x="0" y="0" width="50" height="41" fill="black">
<rect fill="white" width="50" height="41"/>
<path d="M45.8036 18.4562H43.6982V13.978C43.6982 12.8511 43.2505 11.7703 42.4537 10.9735C41.6568 10.1766 40.576 9.72893 39.4491 9.72893H29.1564L33.1491 3.06893C33.3357 2.75862 33.3914 2.3869 33.304 2.03552C33.2165 1.68415 32.993 1.38191 32.6827 1.19529C32.3724 1.00867 32.0007 0.952968 31.6493 1.04043C31.2979 1.12789 30.9957 1.35135 30.8091 1.66165L25.9764 9.72893H24.0236L19.1909 1.66165C19.0043 1.35135 18.7021 1.12789 18.3507 1.04043C17.9993 0.952968 17.6276 1.00867 17.3173 1.19529C17.007 1.38191 16.7835 1.68415 16.696 2.03552C16.6086 2.3869 16.6643 2.75862 16.8509 3.06893L20.8436 9.72893H10.5509C9.42398 9.72893 8.34321 10.1766 7.54635 10.9735C6.74949 11.7703 6.30182 12.8511 6.30182 13.978V18.4562H4.19636C3.34908 18.4576 2.53691 18.7949 1.93779 19.394C1.33866 19.9931 1.00144 20.8053 1 21.6526V28.8962C1.00144 29.7435 1.33866 30.5557 1.93779 31.1548C2.53691 31.7539 3.34908 32.0911 4.19636 32.0926H6.30182V36.5707C6.30182 37.6977 6.74949 38.7784 7.54635 39.5753C8.34321 40.3722 9.42398 40.8198 10.5509 40.8198H39.46C40.018 40.8198 40.5705 40.7099 41.0861 40.4964C41.6016 40.2829 42.07 39.9699 42.4646 39.5753C42.8591 39.1807 43.1721 38.7123 43.3857 38.1968C43.5992 37.6813 43.7091 37.1287 43.7091 36.5707V32.0926H45.8145C46.6599 32.0882 47.4693 31.7498 48.0661 31.1509C48.6628 30.5521 48.9986 29.7416 49 28.8962V21.6526C48.9986 20.8053 48.6613 19.9931 48.0622 19.394C47.4631 18.7949 46.6509 18.4576 45.8036 18.4562ZM4.19636 29.3653C4.07239 29.3639 3.9539 29.314 3.86623 29.2263C3.77857 29.1387 3.72869 29.0202 3.72727 28.8962V21.6526C3.72869 21.5286 3.77857 21.4101 3.86623 21.3224C3.9539 21.2348 4.07239 21.1849 4.19636 21.1835H6.30182V29.3653H4.19636ZM39.4491 38.0926H10.54C10.3402 38.0926 10.1423 38.0532 9.95763 37.9767C9.77299 37.9002 9.60523 37.7881 9.46391 37.6468C9.3226 37.5055 9.2105 37.3378 9.13402 37.1531C9.05755 36.9685 9.01818 36.7706 9.01818 36.5707V31.3398C9.12023 31.152 9.17631 30.9426 9.18182 30.7289V19.8198C9.17968 19.607 9.12735 19.3977 9.02909 19.2089V13.978C9.02909 13.5744 9.18943 13.1873 9.47482 12.9019C9.76022 12.6165 10.1473 12.4562 10.5509 12.4562H39.46C39.6599 12.4562 39.8577 12.4956 40.0424 12.572C40.227 12.6485 40.3948 12.7606 40.5361 12.9019C40.6774 13.0432 40.7895 13.211 40.866 13.3956C40.9425 13.5803 40.9818 13.7782 40.9818 13.978V19.2089C40.8798 19.3968 40.8237 19.6061 40.8182 19.8198V30.7289C40.8203 30.9417 40.8727 31.1511 40.9709 31.3398V36.5707C40.9709 36.7706 40.9315 36.9685 40.8551 37.1531C40.7786 37.3378 40.6665 37.5055 40.5252 37.6468C40.3839 37.7881 40.2161 37.9002 40.0315 37.9767C39.8468 38.0532 39.6489 38.0926 39.4491 38.0926ZM46.2727 28.8962C46.2713 29.0202 46.2214 29.1387 46.1338 29.2263C46.0461 29.314 45.9276 29.3639 45.8036 29.3653H43.6982V21.1835H45.8036C45.9276 21.1849 46.0461 21.2348 46.1338 21.3224C46.2214 21.4101 46.2713 21.5286 46.2727 21.6526V28.8962Z"/>
<path d="M31.6818 30.2529H18.3182C17.8962 30.2529 17.4916 30.4116 17.1932 30.6942C16.8949 30.9768 16.7273 31.36 16.7273 31.7596C16.7273 32.1593 16.8949 32.5425 17.1932 32.8251C17.4916 33.1077 17.8962 33.2664 18.3182 33.2664H31.6818C32.1038 33.2664 32.5084 33.1077 32.8068 32.8251C33.1051 32.5425 33.2727 32.1593 33.2727 31.7596C33.2727 31.36 33.1051 30.9768 32.8068 30.6942C32.5084 30.4116 32.1038 30.2529 31.6818 30.2529Z"/>
<path d="M18.3182 20.9108C18.3182 20.5111 18.1506 20.1279 17.8522 19.8453C17.5539 19.5627 17.1492 19.404 16.7273 19.404H14.1818C13.7599 19.404 13.3552 19.5627 13.0569 19.8453C12.7585 20.1279 12.5909 20.5111 12.5909 20.9108C12.5909 21.3104 12.7585 21.6937 13.0569 21.9762C13.3552 22.2588 13.7599 22.4176 14.1818 22.4176H16.7273C17.1492 22.4176 17.5539 22.2588 17.8522 21.9762C18.1506 21.6937 18.3182 21.3104 18.3182 20.9108Z"/>
<path d="M35.8182 19.404H33.2727C32.8508 19.404 32.4461 19.5627 32.1478 19.8453C31.8494 20.1279 31.6818 20.5111 31.6818 20.9108C31.6818 21.3104 31.8494 21.6937 32.1478 21.9762C32.4461 22.2588 32.8508 22.4176 33.2727 22.4176H35.8182C36.2401 22.4176 36.6448 22.2588 36.9431 21.9762C37.2415 21.6937 37.4091 21.3104 37.4091 20.9108C37.4091 20.5111 37.2415 20.1279 36.9431 19.8453C36.6448 19.5627 36.2401 19.404 35.8182 19.404Z"/>
</mask>
<path d="M45.8036 18.4562H43.6982V13.978C43.6982 12.8511 43.2505 11.7703 42.4537 10.9735C41.6568 10.1766 40.576 9.72893 39.4491 9.72893H29.1564L33.1491 3.06893C33.3357 2.75862 33.3914 2.3869 33.304 2.03552C33.2165 1.68415 32.993 1.38191 32.6827 1.19529C32.3724 1.00867 32.0007 0.952968 31.6493 1.04043C31.2979 1.12789 30.9957 1.35135 30.8091 1.66165L25.9764 9.72893H24.0236L19.1909 1.66165C19.0043 1.35135 18.7021 1.12789 18.3507 1.04043C17.9993 0.952968 17.6276 1.00867 17.3173 1.19529C17.007 1.38191 16.7835 1.68415 16.696 2.03552C16.6086 2.3869 16.6643 2.75862 16.8509 3.06893L20.8436 9.72893H10.5509C9.42398 9.72893 8.34321 10.1766 7.54635 10.9735C6.74949 11.7703 6.30182 12.8511 6.30182 13.978V18.4562H4.19636C3.34908 18.4576 2.53691 18.7949 1.93779 19.394C1.33866 19.9931 1.00144 20.8053 1 21.6526V28.8962C1.00144 29.7435 1.33866 30.5557 1.93779 31.1548C2.53691 31.7539 3.34908 32.0911 4.19636 32.0926H6.30182V36.5707C6.30182 37.6977 6.74949 38.7784 7.54635 39.5753C8.34321 40.3722 9.42398 40.8198 10.5509 40.8198H39.46C40.018 40.8198 40.5705 40.7099 41.0861 40.4964C41.6016 40.2829 42.07 39.9699 42.4646 39.5753C42.8591 39.1807 43.1721 38.7123 43.3857 38.1968C43.5992 37.6813 43.7091 37.1287 43.7091 36.5707V32.0926H45.8145C46.6599 32.0882 47.4693 31.7498 48.0661 31.1509C48.6628 30.5521 48.9986 29.7416 49 28.8962V21.6526C48.9986 20.8053 48.6613 19.9931 48.0622 19.394C47.4631 18.7949 46.6509 18.4576 45.8036 18.4562ZM4.19636 29.3653C4.07239 29.3639 3.9539 29.314 3.86623 29.2263C3.77857 29.1387 3.72869 29.0202 3.72727 28.8962V21.6526C3.72869 21.5286 3.77857 21.4101 3.86623 21.3224C3.9539 21.2348 4.07239 21.1849 4.19636 21.1835H6.30182V29.3653H4.19636ZM39.4491 38.0926H10.54C10.3402 38.0926 10.1423 38.0532 9.95763 37.9767C9.77299 37.9002 9.60523 37.7881 9.46391 37.6468C9.3226 37.5055 9.2105 37.3378 9.13402 37.1531C9.05755 36.9685 9.01818 36.7706 9.01818 36.5707V31.3398C9.12023 31.152 9.17631 30.9426 9.18182 30.7289V19.8198C9.17968 19.607 9.12735 19.3977 9.02909 19.2089V13.978C9.02909 13.5744 9.18943 13.1873 9.47482 12.9019C9.76022 12.6165 10.1473 12.4562 10.5509 12.4562H39.46C39.6599 12.4562 39.8577 12.4956 40.0424 12.572C40.227 12.6485 40.3948 12.7606 40.5361 12.9019C40.6774 13.0432 40.7895 13.211 40.866 13.3956C40.9425 13.5803 40.9818 13.7782 40.9818 13.978V19.2089C40.8798 19.3968 40.8237 19.6061 40.8182 19.8198V30.7289C40.8203 30.9417 40.8727 31.1511 40.9709 31.3398V36.5707C40.9709 36.7706 40.9315 36.9685 40.8551 37.1531C40.7786 37.3378 40.6665 37.5055 40.5252 37.6468C40.3839 37.7881 40.2161 37.9002 40.0315 37.9767C39.8468 38.0532 39.6489 38.0926 39.4491 38.0926ZM46.2727 28.8962C46.2713 29.0202 46.2214 29.1387 46.1338 29.2263C46.0461 29.314 45.9276 29.3639 45.8036 29.3653H43.6982V21.1835H45.8036C45.9276 21.1849 46.0461 21.2348 46.1338 21.3224C46.2214 21.4101 46.2713 21.5286 46.2727 21.6526V28.8962Z" fill="#BDFF02"/>
<path d="M31.6818 30.2529H18.3182C17.8962 30.2529 17.4916 30.4116 17.1932 30.6942C16.8949 30.9768 16.7273 31.36 16.7273 31.7596C16.7273 32.1593 16.8949 32.5425 17.1932 32.8251C17.4916 33.1077 17.8962 33.2664 18.3182 33.2664H31.6818C32.1038 33.2664 32.5084 33.1077 32.8068 32.8251C33.1051 32.5425 33.2727 32.1593 33.2727 31.7596C33.2727 31.36 33.1051 30.9768 32.8068 30.6942C32.5084 30.4116 32.1038 30.2529 31.6818 30.2529Z" fill="#BDFF02"/>
<path d="M18.3182 20.9108C18.3182 20.5111 18.1506 20.1279 17.8522 19.8453C17.5539 19.5627 17.1492 19.404 16.7273 19.404H14.1818C13.7599 19.404 13.3552 19.5627 13.0569 19.8453C12.7585 20.1279 12.5909 20.5111 12.5909 20.9108C12.5909 21.3104 12.7585 21.6937 13.0569 21.9762C13.3552 22.2588 13.7599 22.4176 14.1818 22.4176H16.7273C17.1492 22.4176 17.5539 22.2588 17.8522 21.9762C18.1506 21.6937 18.3182 21.3104 18.3182 20.9108Z" fill="#BDFF02"/>
<path d="M35.8182 19.404H33.2727C32.8508 19.404 32.4461 19.5627 32.1478 19.8453C31.8494 20.1279 31.6818 20.5111 31.6818 20.9108C31.6818 21.3104 31.8494 21.6937 32.1478 21.9762C32.4461 22.2588 32.8508 22.4176 33.2727 22.4176H35.8182C36.2401 22.4176 36.6448 22.2588 36.9431 21.9762C37.2415 21.6937 37.4091 21.3104 37.4091 20.9108C37.4091 20.5111 37.2415 20.1279 36.9431 19.8453C36.6448 19.5627 36.2401 19.404 35.8182 19.404Z" fill="#BDFF02"/>
<path d="M45.8036 18.4562H43.6982V13.978C43.6982 12.8511 43.2505 11.7703 42.4537 10.9735C41.6568 10.1766 40.576 9.72893 39.4491 9.72893H29.1564L33.1491 3.06893C33.3357 2.75862 33.3914 2.3869 33.304 2.03552C33.2165 1.68415 32.993 1.38191 32.6827 1.19529C32.3724 1.00867 32.0007 0.952968 31.6493 1.04043C31.2979 1.12789 30.9957 1.35135 30.8091 1.66165L25.9764 9.72893H24.0236L19.1909 1.66165C19.0043 1.35135 18.7021 1.12789 18.3507 1.04043C17.9993 0.952968 17.6276 1.00867 17.3173 1.19529C17.007 1.38191 16.7835 1.68415 16.696 2.03552C16.6086 2.3869 16.6643 2.75862 16.8509 3.06893L20.8436 9.72893H10.5509C9.42398 9.72893 8.34321 10.1766 7.54635 10.9735C6.74949 11.7703 6.30182 12.8511 6.30182 13.978V18.4562H4.19636C3.34908 18.4576 2.53691 18.7949 1.93779 19.394C1.33866 19.9931 1.00144 20.8053 1 21.6526V28.8962C1.00144 29.7435 1.33866 30.5557 1.93779 31.1548C2.53691 31.7539 3.34908 32.0911 4.19636 32.0926H6.30182V36.5707C6.30182 37.6977 6.74949 38.7784 7.54635 39.5753C8.34321 40.3722 9.42398 40.8198 10.5509 40.8198H39.46C40.018 40.8198 40.5705 40.7099 41.0861 40.4964C41.6016 40.2829 42.07 39.9699 42.4646 39.5753C42.8591 39.1807 43.1721 38.7123 43.3857 38.1968C43.5992 37.6813 43.7091 37.1287 43.7091 36.5707V32.0926H45.8145C46.6599 32.0882 47.4693 31.7498 48.0661 31.1509C48.6628 30.5521 48.9986 29.7416 49 28.8962V21.6526C48.9986 20.8053 48.6613 19.9931 48.0622 19.394C47.4631 18.7949 46.6509 18.4576 45.8036 18.4562ZM4.19636 29.3653C4.07239 29.3639 3.9539 29.314 3.86623 29.2263C3.77857 29.1387 3.72869 29.0202 3.72727 28.8962V21.6526C3.72869 21.5286 3.77857 21.4101 3.86623 21.3224C3.9539 21.2348 4.07239 21.1849 4.19636 21.1835H6.30182V29.3653H4.19636ZM39.4491 38.0926H10.54C10.3402 38.0926 10.1423 38.0532 9.95763 37.9767C9.77299 37.9002 9.60523 37.7881 9.46391 37.6468C9.3226 37.5055 9.2105 37.3378 9.13402 37.1531C9.05755 36.9685 9.01818 36.7706 9.01818 36.5707V31.3398C9.12023 31.152 9.17631 30.9426 9.18182 30.7289V19.8198C9.17968 19.607 9.12735 19.3977 9.02909 19.2089V13.978C9.02909 13.5744 9.18943 13.1873 9.47482 12.9019C9.76022 12.6165 10.1473 12.4562 10.5509 12.4562H39.46C39.6599 12.4562 39.8577 12.4956 40.0424 12.572C40.227 12.6485 40.3948 12.7606 40.5361 12.9019C40.6774 13.0432 40.7895 13.211 40.866 13.3956C40.9425 13.5803 40.9818 13.7782 40.9818 13.978V19.2089C40.8798 19.3968 40.8237 19.6061 40.8182 19.8198V30.7289C40.8203 30.9417 40.8727 31.1511 40.9709 31.3398V36.5707C40.9709 36.7706 40.9315 36.9685 40.8551 37.1531C40.7786 37.3378 40.6665 37.5055 40.5252 37.6468C40.3839 37.7881 40.2161 37.9002 40.0315 37.9767C39.8468 38.0532 39.6489 38.0926 39.4491 38.0926ZM46.2727 28.8962C46.2713 29.0202 46.2214 29.1387 46.1338 29.2263C46.0461 29.314 45.9276 29.3639 45.8036 29.3653H43.6982V21.1835H45.8036C45.9276 21.1849 46.0461 21.2348 46.1338 21.3224C46.2214 21.4101 46.2713 21.5286 46.2727 21.6526V28.8962Z" stroke="#BDFF02" stroke-width="0.2" mask="url(#path-1-outside-1_5690_3617)"/>
<path d="M31.6818 30.2529H18.3182C17.8962 30.2529 17.4916 30.4116 17.1932 30.6942C16.8949 30.9768 16.7273 31.36 16.7273 31.7596C16.7273 32.1593 16.8949 32.5425 17.1932 32.8251C17.4916 33.1077 17.8962 33.2664 18.3182 33.2664H31.6818C32.1038 33.2664 32.5084 33.1077 32.8068 32.8251C33.1051 32.5425 33.2727 32.1593 33.2727 31.7596C33.2727 31.36 33.1051 30.9768 32.8068 30.6942C32.5084 30.4116 32.1038 30.2529 31.6818 30.2529Z" stroke="#BDFF02" stroke-width="0.2" mask="url(#path-1-outside-1_5690_3617)"/>
<path d="M18.3182 20.9108C18.3182 20.5111 18.1506 20.1279 17.8522 19.8453C17.5539 19.5627 17.1492 19.404 16.7273 19.404H14.1818C13.7599 19.404 13.3552 19.5627 13.0569 19.8453C12.7585 20.1279 12.5909 20.5111 12.5909 20.9108C12.5909 21.3104 12.7585 21.6937 13.0569 21.9762C13.3552 22.2588 13.7599 22.4176 14.1818 22.4176H16.7273C17.1492 22.4176 17.5539 22.2588 17.8522 21.9762C18.1506 21.6937 18.3182 21.3104 18.3182 20.9108Z" stroke="#BDFF02" stroke-width="0.2" mask="url(#path-1-outside-1_5690_3617)"/>
<path d="M35.8182 19.404H33.2727C32.8508 19.404 32.4461 19.5627 32.1478 19.8453C31.8494 20.1279 31.6818 20.5111 31.6818 20.9108C31.6818 21.3104 31.8494 21.6937 32.1478 21.9762C32.4461 22.2588 32.8508 22.4176 33.2727 22.4176H35.8182C36.2401 22.4176 36.6448 22.2588 36.9431 21.9762C37.2415 21.6937 37.4091 21.3104 37.4091 20.9108C37.4091 20.5111 37.2415 20.1279 36.9431 19.8453C36.6448 19.5627 36.2401 19.404 35.8182 19.404Z" stroke="#BDFF02" stroke-width="0.2" mask="url(#path-1-outside-1_5690_3617)"/>
</svg>
