<svg width="48" height="44" viewBox="0 0 48 44" fill="none" xmlns="http://www.w3.org/2000/svg">
<path d="M43.6042 33.8855L36.2233 22.3126C37.2293 20.391 37.8059 18.2109 37.8059 15.8947C37.8059 8.23315 31.5728 2 23.9112 2C16.2497 2 10.0165 8.23315 10.0165 15.8947C10.0165 18.2095 10.5932 20.391 11.5992 22.3126L4.2183 33.8855C3.95847 34.2926 3.92929 34.8026 4.13771 35.2375C4.34613 35.6724 4.76575 35.9655 5.24512 36.0156L10.7335 36.5894L13.568 41.3247C13.8167 41.7374 14.26 41.9931 14.7421 42H14.7616C15.2354 42 15.6772 41.7582 15.9329 41.3581L23.3304 29.7602C23.525 29.7685 23.7153 29.7894 23.9112 29.7894C24.1071 29.7894 24.2989 29.7685 24.492 29.7602L31.8896 41.3581C32.1452 41.7582 32.5871 42 33.0609 42H33.0803C33.5625 41.9931 34.0057 41.7374 34.2544 41.3247L37.0889 36.5894L42.5773 36.0156C43.0567 35.9669 43.4749 35.6724 43.6847 35.2375C43.8946 34.8026 43.864 34.2926 43.6042 33.8855ZM14.8005 37.9678L12.7635 34.5663C12.5384 34.1912 12.1508 33.9439 11.7145 33.8994L7.76978 33.4867L13.2887 24.8331C15.0964 26.9771 17.5405 28.5583 20.325 29.3044L14.7991 37.9692L14.8005 37.9678ZM23.9126 27.0104C17.7837 27.0104 12.7969 22.0236 12.7969 15.8947C12.7969 9.76574 17.7837 4.77894 23.9126 4.77894C30.0416 4.77894 35.0284 9.76574 35.0284 15.8947C35.0284 22.0236 30.0416 27.0104 23.9126 27.0104ZM36.1094 33.898C35.6745 33.9425 35.2854 34.1912 35.0603 34.565L33.0234 37.9664L27.4974 29.3017C30.2819 28.5555 32.7274 26.9757 34.5337 24.8303L40.0527 33.484L36.108 33.8966L36.1094 33.898ZM23.9112 7.55787C19.3135 7.55787 15.5744 11.2969 15.5744 15.8947C15.5744 20.4924 19.3135 24.2315 23.9112 24.2315C28.509 24.2315 32.248 20.4924 32.248 15.8947C32.248 11.2969 28.509 7.55787 23.9112 7.55787ZM23.9112 21.4525C20.8461 21.4525 18.3534 18.9598 18.3534 15.8947C18.3534 12.8295 20.8461 10.3368 23.9112 10.3368C26.9764 10.3368 29.4691 12.8295 29.4691 15.8947C29.4691 18.9598 26.9764 21.4525 23.9112 21.4525Z" fill="#BDFF02"/>
</svg>
