<svg width="44" height="38" viewBox="0 0 44 38" fill="none" xmlns="http://www.w3.org/2000/svg">
<path d="M4.52228 33.2789L4.49592 33.4001H4.62H26.18H26.3041L26.2777 33.2789C25.1682 28.1749 20.7291 24.4001 15.4 24.4001C10.0709 24.4001 5.63183 28.1749 4.52228 33.2789ZM0.1 35.5001C0.1 26.9753 6.87523 20.2001 15.4 20.2001C23.9248 20.2001 30.7 26.9753 30.7 35.5001V37.6001H0.1V35.5001Z" fill="#BDFF02" stroke="black" stroke-width="0.2"/>
<path d="M24.1 9.10005C24.1 13.8848 20.1848 17.8 15.4 17.8C10.6152 17.8 6.70001 13.8848 6.70001 9.10005C6.70001 4.31528 10.6152 0.400049 15.4 0.400049C20.1848 0.400049 24.1 4.31528 24.1 9.10005ZM19.9 9.10005C19.9 6.62482 17.8752 4.60005 15.4 4.60005C12.9248 4.60005 10.9 6.62482 10.9 9.10005C10.9 11.5753 12.9248 13.6 15.4 13.6C17.8752 13.6 19.9 11.5753 19.9 9.10005Z" fill="#BDFF02" stroke="black" stroke-width="0.2"/>
<path d="M33.5916 17.5331L33.6622 17.5994L33.7307 17.5309L40.92 10.3416L43.8593 13.2809L33.6592 23.698L27.2014 17.2402L30.1422 14.2994L33.5916 17.5331Z" fill="#BDFF02" stroke="black" stroke-width="0.2"/>
</svg>
